<svg width="123" height="136" viewBox="0 0 123 136" fill="none" xmlns="http://www.w3.org/2000/svg">
<path d="M56.7401 135.827L56.1475 135.814L54.8215 135.391C52.6179 133.899 0.832764 98.2181 0.832764 50.6064C0.832764 46.6636 0.502861 42.4678 0.182568 38.4129C0.182568 38.4129 0.0480441 36.7153 0 36.0939L0.499659 34.4156L7.11693 25.8029L8.6127 24.8868C13.1929 24.0317 16.5176 20.5949 16.5176 16.7129C16.5176 15.893 16.367 15.073 16.0723 14.2819L16.3574 12.027L23.974 1.05377L25.9854 0H96.3764L98.3911 1.05377L106.011 12.027L106.296 14.2819C106.001 15.073 105.851 15.8898 105.851 16.7129C105.851 20.5949 109.175 24.0317 113.756 24.8868L115.251 25.8029L121.869 34.4156L122.368 36.0939C122.314 36.7954 122.186 38.4257 122.186 38.4257C121.865 42.4774 121.536 46.6668 121.536 50.6064C121.536 98.2181 69.7504 133.896 67.5468 135.391L66.2208 135.814L65.6314 135.827L64.994 136L61.1889 135.92L57.3743 136L56.7401 135.827Z" fill="#F1F1F1"/>
<path d="M25.9856 10.5824C26.7031 12.5042 27.097 14.5637 27.097 16.7096C27.097 25.8764 19.9929 33.5251 10.5507 35.2867C10.935 40.3153 11.4155 45.4688 11.4155 50.6063C11.4155 93.1574 60.7631 126.634 60.7631 126.634C60.7631 126.634 60.9073 126.545 61.1827 126.372V10.5824H25.9856Z" fill="#14DB87"/>
<path d="M61.5991 126.634C61.5991 126.634 110.947 93.1606 110.947 50.6063C110.947 45.4656 111.427 40.3121 111.812 35.2867C102.369 33.5251 95.2652 25.8764 95.2652 16.7096C95.2652 14.5637 95.6591 12.5042 96.3766 10.5824H61.1827V126.369C61.4549 126.545 61.5991 126.634 61.5991 126.634Z" fill="#13BD76"/>
<path d="M61.1986 87.7313C59.9847 87.7313 58.8124 87.2476 57.9476 86.3764L41.7856 70.0639C40.0079 68.2702 40.0207 65.3715 41.8144 63.5907C43.608 61.8131 46.5067 61.8227 48.2875 63.6195L60.369 75.8099L83.2636 38.9089C84.596 36.7597 87.4178 36.0999 89.567 37.4323C91.7162 38.7647 92.376 41.5865 91.0436 43.7357L65.0901 85.5661C64.3503 86.7576 63.1075 87.5423 61.7142 87.7024C61.5413 87.7217 61.3683 87.7313 61.1986 87.7313Z" fill="white"/>
</svg>
